PathFileType	4	(X/Y/Z)	C:\Users\Basilio\Documents\Thesis Gigler\squatting_fais\c3dfiles\047\SLS_pre_back3\markers_experimental.trc
DataRate	CameraRate	NumFrames	NumMarkers	Units	OrigDataRate	OrigDataStartFrame	OrigNumFrames
200.000000	200.000000	4	61	mm	200.000000	318	1274
Frame#	Time	FHD			LBHD			RBHD			C7			T10			CLAV			LSHO			LUUPA			LMUPA			LDUPA			LLEP			LMEP			LRAD			LUL			LRFIN			RSHO			RUPA1			RMUPA			RDUPA			RLEP			RMEP			RRAD			RUL			RUFIN			LASI			RASI			USACR			LSACR			RSACR			LTHI1			LTHI2			LTHI3			LTHI4			LLFC			LTIB1			LTIB2			LTIB3			LTIB4			LLMAL			LMMAL			LMT1			LMT2			LMT5			RTHI			RTHI2			RTHI3			RTHI4			RLFC			RMFC			RTIB1			RTIB2			RTIB3			RTIB4			RLMAL			RMMAL			RHEE			RMT1			RMT2			RMT5			LMFC			*60			
		X1	Y1	Z1	X2	Y2	Z2	X3	Y3	Z3	X4	Y4	Z4	X5	Y5	Z5	X6	Y6	Z6	X7	Y7	Z7	X8	Y8	Z8	X9	Y9	Z9	X10	Y10	Z10	X11	Y11	Z11	X12	Y12	Z12	X13	Y13	Z13	X14	Y14	Z14	X15	Y15	Z15	X16	Y16	Z16	X17	Y17	Z17	X18	Y18	Z18	X19	Y19	Z19	X20	Y20	Z20	X21	Y21	Z21	X22	Y22	Z22	X23	Y23	Z23	X24	Y24	Z24	X25	Y25	Z25	X26	Y26	Z26	X27	Y27	Z27	X28	Y28	Z28	X29	Y29	Z29	X30	Y30	Z30	X31	Y31	Z31	X32	Y32	Z32	X33	Y33	Z33	X34	Y34	Z34	X35	Y35	Z35	X36	Y36	Z36	X37	Y37	Z37	X38	Y38	Z38	X39	Y39	Z39	X40	Y40	Z40	X41	Y41	Z41	X42	Y42	Z42	X43	Y43	Z43	X44	Y44	Z44	X45	Y45	Z45	X46	Y46	Z46	X47	Y47	Z47	X48	Y48	Z48	X49	Y49	Z49	X50	Y50	Z50	X51	Y51	Z51	X52	Y52	Z52	X53	Y53	Z53	X54	Y54	Z54	X55	Y55	Z55	X56	Y56	Z56	X57	Y57	Z57	X58	Y58	Z58	X59	Y59	Z59	X60	Y60	Z60	X61	Y61	Z61	

319	1.59	-166.3689270019532	1739.633911132813	-1093.039428710938	-343.5039672851563	1700.162475585938	-1119.104736328125	-320.7565307617188	1702.221923828125	-971.5639648437502	-367.9694519042969	1525.306030273438	-1051.834350585938	-392.2423400878907	1213.022338867188	-1028.265625	-219.3197631835938	1464.82275390625	-1079.685180664063	-296.2837524414063	1482.580810546875	-1230.808715820313	-225.9646148681641	1342.377075195313	-1333.338623046875	-185.0718383789063	1369.685668945313	-1329.653076171875	-161.9904327392578	1316.353637695313	-1347.015747070313	-89.91624450683595	1308.1015625	-1351.569458007813	-102.300521850586	1252.363891601563	-1289.361938476563	64.17723846435548	1419.647338867188	-1177.545288085938	107.2433547973633	1356.932739257813	-1173.424926757813	155.2348327636719	1435.154541015625	-1167.892211914063	-253.1891326904297	1498.450927734375	-918.4602050781252	-151.3876342773438	1367.421142578125	-823.0498657226565	-114.0875854492188	1391.371337890625	-842.7385253906252	-86.35882568359376	1340.261962890625	-825.6834716796877	-12.71943664550782	1332.017333984375	-844.2406005859377	-37.48567962646485	1262.31982421875	-895.5865478515627	81.17993927001955	1384.930419921875	-1081.028930664063	149.5561676025391	1374.400756835938	-1048.502563476563	121.7382888793946	1455.630126953125	-1086.188842773438	-228.0769653320313	985.6736450195315	-1129.540161132813	-208.9913177490235	1004.617492675781	-899.088562011719	-398.7888183593751	1077.161376953125	-1009.889343261719	-406.8775024414064	1043.278686523438	-1034.822021484375	-400.5640869140626	1048.115234375	-977.0108642578127	-312.4473571777344	827.7885742187502	-1186.686889648438	-276.2167053222657	751.8873901367189	-1183.72509765625	-227.812973022461	756.9643554687501	-1173.690307617188	-303.4696044921876	697.7235717773439	-1173.628784179688	-322.9059753417969	527.1546630859376	-1128.208862304688	-290.9807434082032	344.4682006835938	-1028.201782226563	-303.3372192382813	295.7232666015626	-1100.552001953125	-285.5366516113282	294.3184814453126	-1055.976684570313	-299.8821105957032	219.7622985839844	-1021.55419921875	-353.8346557617188	123.5332794189453	-1060.04443359375	-328.8742675781251	140.2467956542969	-975.934753417969	-210.0345611572266	64.70800781250001	-992.9953613281252	-210.6580657958985	60.90720748901369	-1037.811889648438	-259.6516723632813	48.57676696777345	-1081.0546875	-257.0726928710938	826.5812988281252	-792.5710449218752	-207.3357849121094	781.5809326171877	-787.8560791015627	-178.8568267822266	786.6687011718752	-801.7419433593752	-216.9439239501954	698.5765991210939	-777.6739501953127	-192.0251922607422	567.7370605468751	-788.0525512695315	-191.1731872558594	534.0025024414064	-914.728454589844	-273.2664184570313	473.981414794922	-783.9372558593752	-370.8971252441407	509.9096069335939	-746.8248901367189	-353.5592346191407	466.6284790039064	-752.2659912109376	-396.7756958007814	432.3862609863282	-777.697692871094	-560.0075073242189	441.9130859375001	-739.6017456054689	-537.5685424804689	403.0931396484376	-820.3967285156252	-593.9384155273439	482.3686523437501	-801.7681274414065	-591.9810791015626	274.8747863769532	-788.9629516601565	-591.4884643554689	275.2326965332032	-742.7509155273439	-629.0289916992189	327.2674865722657	-698.8960571289064	-288.3135986328126	522.7539062500001	-1009.047546386719	nan	nan	nan	
320	1.595	-166.2901763916016	1739.559692382813	-1092.541748046875	-343.3134765625001	1700.19482421875	-1119.242431640625	-320.4985961914063	1702.378173828125	-972.016540527344	-367.6859436035157	1525.35400390625	-1051.944702148438	-392.3095703125001	1213.136962890625	-1028.262939453125	-218.975082397461	1464.986694335938	-1079.82763671875	-295.7929077148438	1482.586669921875	-1230.956665039063	-225.6212615966797	1342.3759765625	-1333.465942382813	-184.7775573730469	1369.692749023438	-1329.68408203125	-161.7550201416016	1316.39208984375	-1347.056762695313	-89.65405273437501	1308.124877929688	-1351.6240234375	-102.0224609375	1252.559814453125	-1289.339965820313	64.34211730957033	1419.696655273438	-1177.546142578125	107.2533721923828	1356.978515625	-1173.415161132813	155.4095306396485	1435.091186523438	-1167.871215820313	-252.9664459228516	1498.52197265625	-918.570251464844	-150.9556884765625	1367.7216796875	-823.3137207031252	-113.8127136230469	1391.162353515625	-842.5252075195315	-86.25699615478517	1340.364013671875	-825.8026123046877	-12.6453971862793	1332.092163085938	-844.0759277343752	-37.24934005737305	1262.427368164063	-895.7376708984377	81.48687744140626	1384.951904296875	-1081.046997070313	150.0491027832032	1374.49072265625	-1048.59375	122.0521469116211	1455.649169921875	-1086.291381835938	-230.3739318847657	984.790466308594	-1127.27294921875	-209.1164550781251	1004.674438476563	-899.179870605469	-398.8806152343751	1077.312377929688	-1009.831176757813	-406.9991760253907	1043.31689453125	-1034.72119140625	-400.7414855957032	1048.200073242188	-976.885681152344	-312.4922790527344	827.7383422851565	-1186.596069335938	-276.2552795410157	751.8708496093751	-1183.659545898438	-227.8236236572266	756.9702758789064	-1173.645141601563	-303.4030456542969	697.6897583007814	-1173.605834960938	-322.7696838378907	527.1360473632814	-1128.1962890625	-290.6606445312501	344.4804077148438	-1028.815063476563	-303.3603515625001	295.7149047851563	-1100.580810546875	-285.4684448242188	294.2565002441407	-1055.842895507813	-299.8256225585938	219.8175811767579	-1021.465759277344	-353.8226623535157	123.5383834838867	-1059.937255859375	-328.8763427734376	140.2337341308594	-975.908142089844	-210.0194702148438	64.72779846191408	-992.9759521484377	-210.6160430908204	60.93464660644533	-1037.77783203125	-259.6833190917969	48.60063552856447	-1081.069213867188	-257.1764526367188	826.6795043945315	-792.525329589844	-207.4857330322266	781.6865844726565	-787.8122558593752	-178.8743438720703	786.8577270507815	-801.609802246094	-216.8485565185547	698.7251586914064	-777.691101074219	-191.9642639160157	567.8550415039064	-787.992126464844	-191.1234588623047	534.0325317382814	-914.6696777343752	-273.1000366210938	474.1056213378907	-783.7366333007815	-370.8359069824219	509.9793090820314	-746.6482543945314	-353.4567565917969	466.6858520507814	-752.0916137695314	-396.6602478027345	432.4629821777345	-777.6592407226565	-559.8389892578126	441.9603271484376	-739.3281250000001	-537.3880004882814	403.093719482422	-820.1746826171877	-593.9502563476564	482.4949035644532	-801.4729003906252	-591.8054199218751	274.8144836425782	-788.3645629882815	-591.2217407226564	275.4669799804688	-742.7177124023439	-628.5892944335939	327.1852111816407	-698.6914672851564	-288.2545471191407	522.6835937500001	-1008.939514160156	nan	nan	nan	
321	1.6	-166.0713806152344	1739.483276367188	-1092.641723632813	-343.4024963378907	1700.537475585938	-1119.265869140625	-320.2641296386719	1702.373168945313	-972.1292724609377	-367.4712524414063	1525.459106445313	-1052.027099609375	-392.2075500488282	1213.196411132813	-1028.25439453125	-218.5646057128907	1465.021118164063	-1079.922729492188	-295.6763916015626	1482.590698242188	-1231.020874023438	-225.3462371826172	1342.374267578125	-1333.513916015625	-184.4804077148438	1369.766845703125	-1329.747192382813	-161.5538024902344	1316.444580078125	-1347.081909179688	-89.31060791015626	1308.171020507813	-1351.673095703125	-102.1169128417969	1252.577270507813	-1289.693115234375	64.6683807373047	1419.696655273438	-1177.60498046875	107.5239639282227	1356.994995117188	-1173.3984375	155.4102478027344	1434.8486328125	-1167.774291992188	-252.8273925781251	1498.575927734375	-918.5239257812502	-150.8390350341797	1367.7958984375	-823.2727661132815	-113.3390197753907	1391.345825195313	-842.7520751953127	-86.13555145263673	1340.385620117188	-825.829528808594	-12.43801403045655	1332.103637695313	-844.0610351562502	-37.10496902465821	1262.552001953125	-895.6387329101565	81.95742797851564	1384.876831054688	-1081.239501953125	150.241439819336	1374.523681640625	-1048.641967773438	122.371337890625	1455.745483398438	-1086.313598632813	-230.6554870605469	984.727233886719	-1127.18115234375	-209.3567810058594	1004.710205078125	-899.0473632812502	-399.0260620117189	1077.3408203125	-1009.786376953125	-407.1539306640626	1043.359985351563	-1034.662109375	-400.9120178222657	1048.338012695313	-976.8488769531252	-312.6117248535157	827.6818847656252	-1186.540405273438	-276.2073974609376	751.7652587890626	-1183.661743164063	-227.8359069824219	756.9581298828126	-1173.59228515625	-303.4263305664063	697.6514892578126	-1173.51025390625	-322.6735229492188	527.0692749023439	-1128.150268554688	-290.5929260253907	344.3677368164063	-1028.568725585938	-303.0741882324219	295.8085327148438	-1100.550048828125	-285.4268188476563	294.1698913574219	-1055.882934570313	-299.7955932617188	219.6944732666016	-1021.474426269531	-353.9053344726563	123.5054931640625	-1059.888061523438	-328.8867492675782	140.1806182861328	-975.819763183594	-210.0961608886719	64.63579559326173	-992.9136962890627	-210.768295288086	60.91160202026369	-1037.771728515625	-259.6621093750001	48.63374328613283	-1081.064575195313	-257.2940368652344	826.6794433593752	-792.5642700195315	-207.5061950683594	781.856140136719	-787.790954589844	-179.0738220214844	787.0042724609377	-801.4378662109377	-216.8331756591797	698.7919921875001	-777.6626586914065	-191.9337005615235	567.9260864257814	-787.8735351562502	-191.0299835205078	534.1941528320314	-914.6104736328127	-272.9783325195313	474.1513671875001	-783.5471191406252	-370.7188720703126	510.0546264648439	-746.4942626953126	-353.3968811035157	466.7229614257814	-751.9818725585939	-396.5336303710939	432.5337219238282	-777.4324340820315	-559.7102661132814	441.9848632812501	-739.0822753906251	-537.2489013671876	403.105438232422	-819.8952636718752	-593.7968139648439	482.2615051269532	-801.387634277344	-591.2838745117189	274.7778015136719	-788.195007324219	-591.0588378906251	275.1652832031251	-742.3918457031251	-628.2839355468751	327.1835632324219	-698.3890380859376	-288.0512695312501	522.7275390625001	-1008.894287109375	nan	nan	nan	
322	1.605	-165.950424194336	1739.335083007813	-1092.853759765625	-343.1288146972657	1700.528198242188	-1119.489135742188	-319.8215026855469	1702.500854492188	-972.3213500976565	-367.1455078125001	1525.455444335938	-1052.073608398438	-392.2474060058595	1213.310302734375	-1028.19873046875	-218.4104919433594	1464.760009765625	-1079.932006835938	-295.3078002929688	1482.529296875	-1231.011840820313	-225.0155792236329	1342.363403320313	-1333.620849609375	-184.2294158935547	1369.7373046875	-1329.801391601563	-161.3187561035157	1316.467041015625	-1347.15234375	-88.98702239990236	1308.234008789063	-1351.758666992188	-102.1637344360352	1252.521484375	-1289.965698242188	64.9647674560547	1419.7744140625	-1177.614624023438	107.9549102783203	1357.07666015625	-1173.535400390625	155.8271484375	1435.038940429688	-1167.764892578125	-252.6387786865235	1498.609375	-918.564392089844	-150.3650512695313	1367.64990234375	-822.4004516601565	-113.2142486572266	1391.398559570313	-842.7419433593752	-85.97320556640626	1340.445434570313	-825.830993652344	-12.31204319000244	1332.156494140625	-844.0036621093752	-36.81702423095704	1262.578979492188	-895.7010498046877	82.41844940185548	1385.090942382813	-1081.35693359375	150.4011535644532	1374.514770507813	-1048.575073242188	122.6952285766602	1455.507568359375	-1086.228271484375	-230.9426727294922	984.697204589844	-1127.057739257813	-209.6566314697266	1004.695739746094	-898.7752075195315	-399.2147521972657	1077.384521484375	-1009.717224121094	-407.5604248046876	1043.519409179688	-1034.371704101563	-401.0489807128907	1048.3896484375	-976.780456542969	-312.6272888183594	827.6372680664065	-1186.496215820313	-276.2201232910157	751.8556518554689	-1183.641967773438	-227.8291778564454	756.9501953125001	-1173.546508789063	-303.3236999511719	697.5987548828126	-1173.489013671875	-322.4819641113282	527.0271606445314	-1128.139770507813	-290.3381347656251	344.3881225585938	-1028.823608398438	-302.9901123046876	295.7238159179688	-1100.521728515625	-285.3510131835938	294.1285400390626	-1055.839477539063	-299.7573547363282	219.7140045166016	-1021.361877441406	-353.8767700195313	123.5239562988282	-1059.832153320313	-328.9069213867188	140.1412200927735	-975.7313232421877	-209.9500885009766	64.6896209716797	-992.9114379882815	-210.7331695556641	60.87431716918947	-1037.761474609375	-259.7181091308594	48.65270996093751	-1081.058227539063	-257.4306945800782	826.746765136719	-792.4510498046877	-207.5545806884766	781.9235839843752	-787.782653808594	-179.06689453125	787.1509399414065	-801.5503540039065	-216.8597717285157	699.0864868164064	-777.7884521484377	-191.9643859863282	568.0996093750001	-787.7390136718752	-191.0091400146485	534.3109741210939	-914.4668579101565	-272.8503723144532	474.2339782714845	-783.1597900390627	-370.6443481445313	510.0956115722657	-746.3271484375001	-353.2937927246094	466.8021240234376	-751.7896118164064	-396.3168945312501	432.7082824707032	-777.3267211914065	-559.5597534179689	442.0492553710939	-738.8497924804689	-537.1821289062501	403.1357421875001	-819.6553955078127	-593.8074340820314	482.4939880371095	-800.9883422851565	-591.0994873046876	274.9070739746094	-787.9541015625002	-590.7625732421876	275.4051818847657	-741.9799804687501	-628.0540771484376	327.0950622558594	-698.1277465820314	-287.8478698730469	522.6903686523439	-1008.857055664063	nan	nan	nan	
